<?xml version="1.0" encoding="iso-8859-1"?>
<!-- Generator: Adobe Illustrator 19.0.0, SVG Export Plug-In . SVG Version: 6.00 Build 0)  -->
<svg version="1.1" id="Capa_1" xmlns="http://www.w3.org/2000/svg" xmlns:xlink="http://www.w3.org/1999/xlink" x="0px" y="0px"
	 viewBox="0 0 512 512" style="enable-background:new 0 0 512 512;" xml:space="preserve">
<g>
	<g>
		<path d="M502.689,382.463c-0.023-0.044-0.048-0.087-0.071-0.13L320.731,57.553C292.205,5.525,217.643,5.677,189.266,57.551
			L9.342,382.394c-0.013,0.022-0.025,0.046-0.037,0.069c-27.319,49.939,8.779,110.947,65.77,110.947H436.92
			C493.838,493.411,530.043,432.466,502.689,382.463z M436.92,463.424H75.075c-34.187,0-55.843-36.587-39.474-66.547L215.536,72.011
			c17.083-31.227,61.84-31.224,78.924,0c0.023,0.043,0.048,0.087,0.071,0.13l181.882,324.772
			C492.765,426.903,471.051,463.424,436.92,463.424z"/>
	</g>
</g>
<g>
	<g>
		<path d="M446.862,411.248L353.94,241.395c-4.172-7.629-13.946-10.111-21.251-5.423L67.977,405.824
			c-13.061,8.38-6.213,28.731,9.222,27.573c0.359,0.026,0.723,0.04,1.087,0.04h355.423
			C445.071,433.437,452.327,421.235,446.862,411.248z M127.206,403.449L127.206,403.449L335.35,269.894l73.066,133.556H127.206z"/>
	</g>
</g>
<g>
</g>
<g>
</g>
<g>
</g>
<g>
</g>
<g>
</g>
<g>
</g>
<g>
</g>
<g>
</g>
<g>
</g>
<g>
</g>
<g>
</g>
<g>
</g>
<g>
</g>
<g>
</g>
<g>
</g>
</svg>
