<?xml version="1.0" encoding="utf-8"?><svg version="1.1" id="Layer_1" xmlns="http://www.w3.org/2000/svg" xmlns:xlink="http://www.w3.org/1999/xlink" x="0px" y="0px" viewBox="0 0 122.88 117.83" style="enable-background:new 0 0 122.88 117.83" xml:space="preserve"><style type="text/css">.st0{fill-rule:evenodd;clip-rule:evenodd;}</style><g><path class="st0" d="M118.19,111.63l-3.22-23.28C95.89,80.01,77.5,76.58,59.69,76.97C41.92,77.35,24.7,81.52,7.92,88.4L4.7,111.61 c14.53-8.68,35.59-13.04,56.64-13.04C82.36,98.57,103.48,102.91,118.19,111.63L118.19,111.63z M60.1,35.99c7.4,0,13.4,6,13.4,13.4 s-6,13.4-13.4,13.4c-7.4,0-13.4-6-13.4-13.4S52.7,35.99,60.1,35.99L60.1,35.99z M61.57,0L61.57,0c4.21,0,7.65,3.44,7.65,7.65v3.68 c12.96,1.61,24.73,7.49,33.6,16.18c10.18,9.97,16.55,23.65,16.55,38.87c0,0.28-0.01,0.75-0.03,1.42l-0.49,18.62 c0.05,0.2,0.08,0.4,0.07,0.61l3.93,28.41c0.08,0.51-0.02,1.05-0.35,1.51c-0.65,0.93-1.93,1.15-2.86,0.5 c-14.01-9.86-36.16-14.78-58.31-14.78c-22.2,0-44.28,4.93-58.06,14.74c-0.42,0.31-0.95,0.46-1.51,0.39 c-1.12-0.16-1.9-1.19-1.75-2.31L3.99,86.9c0-0.13,0.02-0.25,0.04-0.37L2.9,68.74c-0.07-1.14-0.11-2.23-0.11-3.27 c0-14.66,6.32-27.82,16.31-37.56c9.18-8.94,21.47-14.98,34.82-16.6V7.65C53.92,3.44,57.37,0,61.57,0L61.57,0z M114.83,83.83 l0.42-16.14c0.01-0.25,0.01-0.69,0.01-1.32c0-14.06-5.9-26.72-15.31-35.95C90.51,21.18,77.54,15.36,63.42,15 c-0.29-0.01-0.76-0.01-1.43-0.01h-0.86c-1.23,0-2.41,0.04-3.55,0.11c-13.65,0.87-26.34,6.73-35.61,15.75 C12.73,39.84,6.9,51.98,6.9,65.47c0,1.04,0.03,2.04,0.09,3.01l0.99,15.47c16.7-6.67,33.88-10.7,51.63-11.08 C77.44,72.49,95.81,75.8,114.83,83.83L114.83,83.83z"/></g></svg>